<svg xmlns="http://www.w3.org/2000/svg" width="1496.451" height="954.994" viewBox="275.039 304.363 1496.451 954.994"><title>Pin Drop web elements2</title><path d="M1734.731 1259.356h-10.66l-317.596-5.146h-763.48l-322.742 5.146h-13.601c-17.926-1.531-31.678-16.562-31.612-34.554v-11.763c2.182-16.471 15.142-29.431 31.612-31.612h13.233l322.742 5.146h765.318l317.596-5.146h9.19c18.012.963 33.11 13.948 36.759 31.612v13.233c-3.049 18.246-18.295 31.967-36.759 33.084zm0-437.796h-10.66l-317.596-5.146h-763.48l-322.742 5.146h-13.601c-17.926-1.531-31.678-16.562-31.612-34.554v-13.233c2.182-16.471 15.142-29.431 31.612-31.612h13.233l322.742 5.146h765.318l317.596-5.146h9.19c18.012.963 33.11 13.948 36.759 31.612v13.233c-2.419 18.823-17.822 33.303-36.759 34.554zm0-437.798h-10.66l-317.596-5.146h-763.48l-322.742 5.146h-13.601c-17.926-1.531-31.678-16.562-31.612-34.553v-13.233c2.182-16.471 15.142-29.431 31.612-31.613h13.233l322.742 5.146h765.318l317.596-5.146h9.19c18.012.963 33.11 13.948 36.759 31.613v13.233c-2.419 18.823-17.822 33.302-36.759 34.553z"/></svg>