<svg xmlns="http://www.w3.org/2000/svg" width="41" height="20" viewBox="478.956 373.872 41 20"><title>ScotchArrow2017</title><path fill="#FFF" d="M479.022 384.067c.082.193.63.396 1.646.611l.456.134a15.559 15.559 0 0 1 6.481 2.913 30.704 30.704 0 0 1 5.325 5.325l.289.333c.244.326.463.489.656.489s.304-.274.333-.822a12.501 12.501 0 0 0-1.023-3.813 24.856 24.856 0 0 0-2.057-4.347 1.333 1.333 0 0 1-.122-.289c0-.133.163-.2.489-.2 1.89 0 23.903.277 24.669.322l1.823.122h.723c.83 0 1.245-.326 1.245-.978s-.415-.978-1.245-.978h-.723l-1.867.133c-.768 0-23.002.323-24.67.323-.326 0-.489-.067-.489-.2.029-.102.07-.198.122-.289a24.909 24.909 0 0 0 2.09-4.348 12.503 12.503 0 0 0 1.023-3.812c0-.549-.111-.823-.333-.823s-.441.163-.656.489l-.289.334a30.767 30.767 0 0 1-5.325 5.336 15.568 15.568 0 0 1-6.47 2.891l-1.39.333c-.519.133-.778.337-.778.611.006.071.03.139.067.2z"/></svg>