<svg xmlns="http://www.w3.org/2000/svg" width="300" height="275.651" viewBox="1052.74 496.567 300 275.651"><title>Pin Drop logo</title><path d="M1086.923 622.679c-1.481-4.33-4.05-6.168-7.63-6.168a9.027 9.027 0 0 0-5.625 2.081c-3.58 2.7-5.062 8.024-5.062 14.191v1.462c0 6.168 1.481 11.567 5.062 14.268a8.944 8.944 0 0 0 5.625 2.005c3.58 0 6.148-1.612 7.63-5.942a32.076 32.076 0 0 0 1.556-11.023 31.088 31.088 0 0 0-1.556-10.874m5.624 21.747c-3.112 4.855-7.855 8.174-13.123 8.174a9.956 9.956 0 0 1-6.918-2.699 12.172 12.172 0 0 1-3.749-6.018h-.131V769.04c0 .618.543.844 2.568.918l6.224.226a.994.994 0 0 1 1.088 1.013.957.957 0 0 1-1.088 1.013c-2.644 0-8.249-.226-11.248-.226s-8.643.226-11.248.226a.956.956 0 0 1-1.088-1.012.996.996 0 0 1 1.088-1.013l6.225-.226a.862.862 0 0 0 .937-.918V619.905c0-1.312-.618-2.081-2.175-2.081h-6.148a1.05 1.05 0 0 1-1.014-1.162c0-.544.319-.919 1.013-.919 3.75 0 9.486-.149 13.704-.149.769 0 1.163.394 1.163 1.087v6.486h.225a12.177 12.177 0 0 1 3.75-6.018 9.878 9.878 0 0 1 6.917-2.624c5.287 0 10.03 3.468 13.123 8.323a20.628 20.628 0 0 1 3.113 10.724 21.086 21.086 0 0 1-3.113 10.873m21.352-37.588a4.836 4.836 0 0 1-4.912-4.931 4.912 4.912 0 0 1 9.805 0 4.837 4.837 0 0 1-4.893 4.931m9.805 44.675c-3.355 0-5.624-.226-9.036-.226-3.413 0-5.624.226-9.037.226a1.013 1.013 0 1 1-.001-2.006l4.912-.226c.619 0 .862-.3.862-.918v-28.478c0-1.312-.469-2.081-2.024-2.081h-5.193a.994.994 0 0 1-1.087-.994 1.048 1.048 0 0 1 1.087-.993c2.644 0 5.905 0 9.036-.301 1.557-.149 2.963-.469 3.75-.469a1.05 1.05 0 0 1 1.162 1.163v32.133c0 .543.225.918.862.918l4.818.226a1.014 1.014 0 0 1 1.141.865 1.014 1.014 0 0 1-1.14 1.141m49.005.02c-3.355 0-6.074-.226-9.504-.226-3.431 0-5.831.226-8.793.226a.881.881 0 0 1-.937-.994c0-.469.226-.919 1.013-1.012l4.518-.226a.863.863 0 0 0 .938-.918V624.31c0-5.398-1.874-7.873-5.455-7.873-5.287 0-9.374 5.023-9.374 12.729v19.197c0 .543.225.918.862.918l4.519.226c.787 0 1.087.543 1.087 1.012a.992.992 0 0 1-1.087.994c-2.025 0-4.987-.226-8.643-.226-4.668 0-6.543.226-9.805.226a.918.918 0 0 1-.937-.994.993.993 0 0 1 1.087-1.012l5.456-.226c.618 0 .862-.3.862-.918v-28.459c0-1.312-.544-2.081-2.1-2.081h-5.493a.994.994 0 0 1-1.088-.994 1.05 1.05 0 0 1 1.088-.993c3.749 0 8.867-.395 12.991-.77a1.051 1.051 0 0 1 1.163 1.163v5.624h.225a10.385 10.385 0 0 1 9.729-7.35c6.102-.305 11.295 4.395 11.599 10.496.022.438.018.877-.013 1.314v22.048c0 .618.15.918.862.918l5.287.226a1.013 1.013 0 1 1 .001 2.006m35.974-18.726c0-6.168-1.405-11.492-4.986-14.192a9.236 9.236 0 0 0-5.756-2.08c-7.93 0-9.186 9.261-9.186 17.06-.038 9.486 1.649 16.984 9.205 16.984a9.166 9.166 0 0 0 5.755-2.043c3.581-2.699 4.987-8.099 4.987-14.267l-.019-1.462zm14.474 18.747h-8.324c-1.706 0-5.999.149-5.999.149l-.226-.318v-7.499h-.225a12.093 12.093 0 0 1-3.58 6.018 10.147 10.147 0 0 1-7.012 2.7c-5.287 0-10.03-3.318-13.123-8.174a21.088 21.088 0 0 1-3.112-10.874 20.62 20.62 0 0 1 3.112-10.724c3.112-4.855 7.854-8.323 13.123-8.323a10.088 10.088 0 0 1 7.012 2.624 12.093 12.093 0 0 1 3.58 6.018h.244V501.272c0-1.687-.226-2.475-2.175-2.475h-8.962a.957.957 0 0 1-1.012-.843v-.469a.937.937 0 0 1 .938-.918h17.51c.319 0 .319.225.319.318v151.104c0 .544.394 1.312 1.631 1.312 1.874 0 6.299.15 6.299.15a.9.9 0 0 1 .769.844v.263c0 .394-.319.993-.769.993m21.56-23.697v20.51a.86.86 0 0 0 .938.918l5.455.226a.993.993 0 0 1 1.088 1.012.938.938 0 0 1-1.013.994c-2.644 0-6.693-.226-9.729-.226-3.432 0-6.375.226-9.73.226a.975.975 0 0 1-1.012-.995.993.993 0 0 1 1.087-1.012l5.53-.226c.693 0 .938-.3.938-.918v-28.459c0-1.312-.544-2.081-2.1-2.081h-6.225a.993.993 0 0 1-1.087-.994 1.052 1.052 0 0 1 1.086-1.013h.001c3.75 0 9.374-.394 13.535-.769a1.07 1.07 0 0 1 1.163 1.163v5.624h.225a9.579 9.579 0 0 1 8.399-7.105 6.842 6.842 0 0 1 7.161 7.105c0 2.775-1.481 5.324-4.349 5.324a3.994 3.994 0 0 1-4.05-4.162c0-3.618 3.581-3.544 3.581-5.249 0-.994-.938-1.463-2.25-1.463-5.756 0-8.474 6.955-8.474 11.643m51.274-2.773a10.158 10.158 0 0 0-5.53-7.873 10.72 10.72 0 0 0-4.35-.769 11.082 11.082 0 0 0-4.443.769c-3.337 1.387-4.742 4.63-5.455 7.873a39.561 39.561 0 0 0-.863 8.418 38.688 38.688 0 0 0 .863 8.324c.693 3.243 2.1 6.561 5.455 7.948 1.388.525 2.867.768 4.35.712a10.739 10.739 0 0 0 4.349-.693c3.338-1.387 4.819-4.705 5.531-7.948a38.96 38.96 0 0 0 .769-8.324 39.771 39.771 0 0 0-.769-8.417m4.199 19.59a21.936 21.936 0 0 1-8.942 6.955 14.739 14.739 0 0 1-10.273 0 22.214 22.214 0 0 1-9.018-6.955 18.317 18.317 0 0 1 0-22.366 22.192 22.192 0 0 1 9.018-6.937 14.739 14.739 0 0 1 10.273 0 21.905 21.905 0 0 1 8.942 6.937 18.019 18.019 0 0 1 0 22.366m43.362-22.085c-1.48-4.33-4.049-6.168-7.63-6.168a9.022 9.022 0 0 0-5.624 2.081c-3.581 2.7-5.062 8.024-5.062 14.191v1.462c0 6.168 1.48 11.567 5.062 14.268a8.94 8.94 0 0 0 5.624 2.005c3.581 0 6.149-1.612 7.63-5.942a32.101 32.101 0 0 0 1.557-11.023 31.09 31.09 0 0 0-1.557-10.874m5.624 21.747c-3.111 4.855-7.854 8.174-13.123 8.174a9.936 9.936 0 0 1-6.824-2.681 12.17 12.17 0 0 1-3.749-6.018h-.225v22.215c0 .619.543.844 2.568.919l6.224.225a.995.995 0 0 1 1.088.994.958.958 0 0 1-1.087 1.013c-2.644 0-8.249-.226-11.249-.226-2.999 0-8.642.226-11.248.226a.957.957 0 0 1-1.087-1.012.993.993 0 0 1 1.087-.994l6.225-.225a.862.862 0 0 0 .938-.919v-46.212c0-1.312-.619-2.081-2.175-2.081h-6.056a1.05 1.05 0 0 1-1.013-1.162.883.883 0 0 1 1.013-.919c3.749 0 9.505-.149 13.704-.149.787 0 1.162.394 1.162 1.087v6.486h.131a12.17 12.17 0 0 1 3.75-6.018 9.88 9.88 0 0 1 6.918-2.624c5.287 0 10.029 3.468 13.123 8.323a20.617 20.617 0 0 1 3.111 10.724 21.093 21.093 0 0 1-3.111 10.873"/></svg>