<svg xmlns="http://www.w3.org/2000/svg" width="36.894" height="18" viewBox="1181.555 620.857 36.894 18"><title>ScotchArrow</title><path d="M1218.39 629.675c-.075-.171-.567-.354-1.476-.553l-.44-.113a13.942 13.942 0 0 1-5.83-2.618 27.521 27.521 0 0 1-4.796-4.796h.035l-.246-.297c-.229-.294-.428-.44-.599-.44s-.27.245-.299.737a11.36 11.36 0 0 0 .924 3.434 22.55 22.55 0 0 0 1.88 3.908c.048.082.086.168.113.258 0 .123-.147.184-.44.184-1.696 0-21.521-.246-22.198-.286-.676-.042-1.244-.077-1.679-.119h-.646c-.759.004-1.139.299-1.139.888 0 .587.373.881 1.118.881h.665c.431-.038.992-.077 1.68-.118s20.696-.287 22.198-.287c.293 0 .44.061.44.184a1.162 1.162 0 0 1-.113.258 22.55 22.55 0 0 0-1.88 3.908 11.31 11.31 0 0 0-.924 3.434c0 .492.101.738.299.738.197 0 .397-.146.599-.436l.257-.297h-.036a27.695 27.695 0 0 1 4.796-4.796 13.966 13.966 0 0 1 5.83-2.618c.764-.171 1.182-.271 1.258-.298.47-.124.707-.308.707-.553a.44.44 0 0 0-.058-.187z"/></svg>