<svg xmlns="http://www.w3.org/2000/svg" width="61.736" height="100" viewBox="1169.132 455.575 61.736 100"><path d="M1222.187 503.164v-25.402c0-12.219-9.968-22.187-22.187-22.187s-22.187 9.968-22.187 22.187v25.402c-5.466 5.466-8.682 13.183-8.682 21.543 0 17.042 13.826 30.868 30.868 30.868s30.868-13.826 30.868-30.868c.001-8.36-3.536-16.077-8.68-21.543zM1200 460.72c9.324 0 17.042 7.717 17.042 17.042v21.222c-4.823-3.215-10.611-5.145-17.042-5.145s-12.219 1.929-17.042 5.145v-21.222c0-9.647 7.717-17.042 17.042-17.042zm2.572 66.238v9.646c0 1.286-1.286 2.572-2.572 2.572s-2.572-1.286-2.572-2.572v-9.646c-3.537-.965-6.431-4.502-6.431-8.36 0-4.823 3.858-8.682 8.682-8.682s8.682 3.858 8.682 8.682c.321 4.18-2.252 7.395-5.789 8.36z"/></svg>