<svg xmlns="http://www.w3.org/2000/svg" width="40.99" height="20" viewBox="1179.505 619.857 40.99 20"><title>ScotchArrow</title><path d="M1220.433 629.655c-.083-.19-.63-.395-1.64-.615l-.489-.125a15.531 15.531 0 0 1-6.479-2.909 30.674 30.674 0 0 1-5.328-5.329h.039l-.272-.33c-.255-.327-.477-.49-.666-.49-.19 0-.3.273-.331.82a12.568 12.568 0 0 0 1.025 3.814 24.973 24.973 0 0 0 2.089 4.344c.054.09.096.185.126.285 0 .137-.164.205-.49.205-1.884 0-23.911-.273-24.663-.319s-1.383-.085-1.867-.131h-.717c-.843.004-1.264.332-1.264.985s.414.979 1.241.979h.74a71.262 71.262 0 0 1 1.867-.131c.763-.046 22.995-.319 24.663-.319.326 0 .49.068.49.205-.03.1-.072.195-.126.285a24.973 24.973 0 0 0-2.089 4.344 12.54 12.54 0 0 0-1.025 3.814c0 .547.11.82.331.82.22 0 .441-.162.666-.484l.284-.33h-.04a30.785 30.785 0 0 1 5.329-5.329 15.544 15.544 0 0 1 6.479-2.909c.847-.189 1.312-.3 1.396-.33.523-.137.785-.342.785-.615a.478.478 0 0 0-.064-.205z"/></svg>