<svg xmlns="http://www.w3.org/2000/svg" width="27.971" height="28.002" viewBox="496.675 369.999 27.971 28.002"><title>gallery_icon</title><g fill="#FFF"><path d="M514.933 391.633h-.164a.43.43 0 0 0-.43.395v.164l.062 2.594v.778l-.051 1.441-3.607.059h-9.521l-3.561-.059-.057-3.598v-9.496l.059-3.588 2.174-.054h.777l1.83.064h.129a.493.493 0 0 0 .461-.43v-.165a.495.495 0 0 0-.457-.395h-.133l-1.83.064h-.766l-2.611-.064h-.164a.46.46 0 0 0-.395.395v.042c-.002.015-.004.029-.004.045v.133l.068 3.929v9.52l-.064 4.017v.169l.002.011a.46.46 0 0 0 .393.38h.018l.045.004h.133l3.953-.063h9.52l3.951.062a.494.494 0 0 0 .064.015h.164a.482.482 0 0 0 .195-.088.46.46 0 0 0 .199-.319v-.183l-.064-1.83v-.777l.072-2.611v-.164a.45.45 0 0 0-.39-.397z"/><path d="M524.644 370.558v-.165a.458.458 0 0 0-.393-.394h-.201l-3.953.063h-9.52l-4.015-.062h-.166a.46.46 0 0 0-.393.394v.202l.064 3.953v9.528l-.064 4.016v.165a.46.46 0 0 0 .393.395h.197l3.953-.073h9.52l3.967.062a.382.382 0 0 0 .051.011h.168a.521.521 0 0 0 .166-.067.453.453 0 0 0 .223-.335v-.011a.174.174 0 0 0 .006-.045v-.164l-.062-3.953v-9.501l.059-4.019zm-14.098 17.159l-3.566-.058-.057-3.583v-9.528l.057-3.565 3.598-.058h9.52l3.566.059.057 3.597v9.497l-.057 3.583-3.6.058-9.518-.002z"/></g></svg>