<?xml version="1.0" encoding="utf-8"?>
<!-- Generator: Adobe Illustrator 15.1.0, SVG Export Plug-In . SVG Version: 6.00 Build 0)  -->
<!DOCTYPE svg PUBLIC "-//W3C//DTD SVG 1.1//EN" "http://www.w3.org/Graphics/SVG/1.1/DTD/svg11.dtd">
<svg version="1.1" id="Layer_1" xmlns="http://www.w3.org/2000/svg" xmlns:xlink="http://www.w3.org/1999/xlink" x="0px" y="0px"
	 width="1496.451px" height="954.994px" viewBox="275.039 304.363 1496.451 954.994"
	 enable-background="new 275.039 304.363 1496.451 954.994" xml:space="preserve">
<title>Pin Drop web elements2</title>
<path d="M1734.731,1259.356h-10.66l-317.596-5.146h-763.48l-322.742,5.146h-13.601c-17.926-1.531-31.678-16.562-31.612-34.554
	v-11.763c2.182-16.471,15.142-29.431,31.612-31.612h13.233l322.742,5.146h765.318l317.596-5.146h9.19
	c18.012,0.963,33.11,13.948,36.759,31.612v13.233C1768.441,1244.518,1753.195,1258.239,1734.731,1259.356z"/>
<path d="M1734.731,821.56h-10.66l-317.596-5.146h-763.48l-322.742,5.146h-13.601c-17.926-1.531-31.678-16.562-31.612-34.554v-13.233
	c2.182-16.471,15.142-29.431,31.612-31.612h13.233l322.742,5.146h765.318l317.596-5.146h9.19
	c18.012,0.963,33.11,13.948,36.759,31.612v13.233C1769.071,805.829,1753.668,820.309,1734.731,821.56z"/>
<path d="M1734.731,383.762h-10.66l-317.596-5.146h-763.48l-322.742,5.146h-13.601c-17.926-1.531-31.678-16.562-31.612-34.553
	v-13.233c2.182-16.471,15.142-29.431,31.612-31.613h13.233l322.742,5.146h765.318l317.596-5.146h9.19
	c18.012,0.963,33.11,13.948,36.759,31.613v13.233C1769.071,368.032,1753.668,382.511,1734.731,383.762z"/>
</svg>
