<?xml version="1.0" encoding="utf-8"?>
<!-- Generator: Adobe Illustrator 15.1.0, SVG Export Plug-In . SVG Version: 6.00 Build 0)  -->
<!DOCTYPE svg PUBLIC "-//W3C//DTD SVG 1.1//EN" "http://www.w3.org/Graphics/SVG/1.1/DTD/svg11.dtd">
<svg version="1.1" id="Layer_1" xmlns="http://www.w3.org/2000/svg" xmlns:xlink="http://www.w3.org/1999/xlink" x="0px" y="0px"
	 width="27.971px" height="28.002px" viewBox="496.675 369.999 27.971 28.002"
	 enable-background="new 496.675 369.999 27.971 28.002" xml:space="preserve">
<title>gallery_icon</title>
<g>
	<path fill="#FFFFFF" d="M514.933,391.633h-0.164c-0.225-0.001-0.41,0.17-0.43,0.395v0.164l0.062,2.594v0.778l-0.051,1.441
		l-3.607,0.059h-9.521l-3.561-0.059l-0.057-3.598v-9.496l0.059-3.588l2.174-0.054h0.777l1.83,0.064h0.129
		c0.236-0.014,0.432-0.194,0.461-0.43v-0.165c-0.045-0.221-0.232-0.381-0.457-0.395h-0.133l-1.83,0.064h-0.766l-2.611-0.064h-0.164
		c-0.205,0.027-0.367,0.188-0.395,0.395v0.042c-0.002,0.015-0.004,0.029-0.004,0.045v0.133l0.068,3.929v9.52l-0.064,4.017v0.005
		v0.16v0.004c0,0.004,0.002,0.008,0.002,0.011c0.033,0.198,0.191,0.353,0.393,0.38h0.018c0.016,0.002,0.031,0.003,0.045,0.004h0.133
		l3.953-0.063h9.52l3.951,0.062c0.021,0.006,0.043,0.012,0.064,0.015h0.164c0.074-0.015,0.139-0.046,0.195-0.088
		c0.105-0.071,0.182-0.187,0.199-0.319v-0.05v-0.114v-0.019l-0.064-1.83v-0.777l0.072-2.611v-0.164
		C515.3,391.821,515.138,391.66,514.933,391.633z"/>
	<path fill="#FFFFFF" d="M524.644,370.558v-0.165c-0.025-0.204-0.188-0.365-0.393-0.394h-0.068h-0.096h-0.037l-3.953,0.063h-9.52
		L506.562,370h-0.166c-0.203,0.027-0.365,0.188-0.393,0.394v0.069v0.096v0.037l0.064,3.953v9.528l-0.064,4.016v0.165
		c0.027,0.205,0.188,0.366,0.393,0.395h0.064h0.102h0.031l3.953-0.073h9.52l3.967,0.062c0.016,0.005,0.033,0.008,0.051,0.011h0.168
		c0.062-0.014,0.117-0.036,0.166-0.067c0.119-0.07,0.205-0.19,0.223-0.335v-0.011c0.004-0.016,0.006-0.029,0.006-0.045v-0.164
		l-0.062-3.953v-9.501L524.644,370.558z M510.546,387.717l-3.566-0.058l-0.057-3.583v-9.528l0.057-3.565l3.598-0.058h9.52
		l3.566,0.059l0.057,3.597v9.497l-0.057,3.583l-3.6,0.058L510.546,387.717L510.546,387.717z"/>
</g>
</svg>
