<?xml version="1.0" encoding="utf-8"?>
<!-- Generator: Adobe Illustrator 15.1.0, SVG Export Plug-In . SVG Version: 6.00 Build 0)  -->
<!DOCTYPE svg PUBLIC "-//W3C//DTD SVG 1.1//EN" "http://www.w3.org/Graphics/SVG/1.1/DTD/svg11.dtd">
<svg version="1.1" id="Layer_1" xmlns="http://www.w3.org/2000/svg" xmlns:xlink="http://www.w3.org/1999/xlink" x="0px" y="0px"
	 width="61.736px" height="100px" viewBox="1169.132 455.575 61.736 100" enable-background="new 1169.132 455.575 61.736 100"
	 xml:space="preserve">
<g>
	<path d="M1222.187,503.164v-25.402c0-12.219-9.968-22.187-22.187-22.187s-22.187,9.968-22.187,22.187v25.402
		c-5.466,5.466-8.682,13.183-8.682,21.543c0,17.042,13.826,30.868,30.868,30.868s30.868-13.826,30.868-30.868
		C1230.868,516.347,1227.331,508.63,1222.187,503.164z M1200,460.72c9.324,0,17.042,7.717,17.042,17.042v21.222
		c-4.823-3.215-10.611-5.145-17.042-5.145s-12.219,1.929-17.042,5.145v-21.222C1182.958,468.115,1190.675,460.72,1200,460.72z
		 M1202.572,526.958v9.646c0,1.286-1.286,2.572-2.572,2.572s-2.572-1.286-2.572-2.572v-9.646c-3.537-0.965-6.431-4.502-6.431-8.36
		c0-4.823,3.858-8.682,8.682-8.682s8.682,3.858,8.682,8.682C1208.682,522.778,1206.109,525.993,1202.572,526.958z"/>
</g>
</svg>
