<?xml version="1.0" encoding="utf-8"?>
<!-- Generator: Adobe Illustrator 15.1.0, SVG Export Plug-In . SVG Version: 6.00 Build 0)  -->
<!DOCTYPE svg PUBLIC "-//W3C//DTD SVG 1.1//EN" "http://www.w3.org/Graphics/SVG/1.1/DTD/svg11.dtd">
<svg version="1.1" id="Layer_1" xmlns="http://www.w3.org/2000/svg" xmlns:xlink="http://www.w3.org/1999/xlink" x="0px" y="0px"
	 width="36.894px" height="18px" viewBox="1181.555 620.857 36.894 18" enable-background="new 1181.555 620.857 36.894 18"
	 xml:space="preserve">
<title>ScotchArrow</title>
<path d="M1218.39,629.675c-0.075-0.171-0.567-0.354-1.476-0.553l-0.44-0.113c-2.119-0.409-4.116-1.306-5.83-2.618
	c-1.791-1.394-3.4-3.006-4.796-4.796h0.035l-0.246-0.297c-0.229-0.294-0.428-0.44-0.599-0.44s-0.27,0.245-0.299,0.737
	c0.126,1.187,0.438,2.346,0.924,3.434c0.5,1.359,1.129,2.67,1.88,3.908c0.048,0.082,0.086,0.168,0.113,0.258
	c0,0.123-0.147,0.184-0.44,0.184c-1.696,0-21.521-0.246-22.198-0.286c-0.676-0.042-1.244-0.077-1.679-0.119h-0.646
	c-0.759,0.004-1.139,0.299-1.139,0.888c0,0.587,0.373,0.881,1.118,0.881h0.665c0.431-0.038,0.992-0.077,1.68-0.118
	s20.696-0.287,22.198-0.287c0.293,0,0.44,0.061,0.44,0.184c-0.027,0.091-0.065,0.176-0.113,0.258
	c-0.751,1.238-1.38,2.549-1.88,3.908c-0.486,1.088-0.8,2.248-0.924,3.434c0,0.492,0.101,0.738,0.299,0.738
	c0.197,0,0.397-0.146,0.599-0.436l0.257-0.297h-0.036c1.396-1.789,3.007-3.4,4.796-4.796c1.715-1.312,3.712-2.208,5.83-2.618
	c0.764-0.171,1.182-0.271,1.258-0.298c0.47-0.124,0.707-0.308,0.707-0.553C1218.442,629.795,1218.423,629.73,1218.39,629.675z"/>
</svg>
