<?xml version="1.0" encoding="utf-8"?>
<!-- Generator: Adobe Illustrator 15.1.0, SVG Export Plug-In . SVG Version: 6.00 Build 0)  -->
<!DOCTYPE svg PUBLIC "-//W3C//DTD SVG 1.1//EN" "http://www.w3.org/Graphics/SVG/1.1/DTD/svg11.dtd">
<svg version="1.1" id="Layer_1" xmlns="http://www.w3.org/2000/svg" xmlns:xlink="http://www.w3.org/1999/xlink" x="0px" y="0px"
	 width="41px" height="20px" viewBox="478.956 373.872 41 20" enable-background="new 478.956 373.872 41 20" xml:space="preserve">
<title>ScotchArrow2017</title>
<path fill="#FFFFFF" d="M519.89,383.677c-0.082-0.193-0.63-0.396-1.646-0.611l-0.456-0.133c-2.356-0.458-4.574-1.455-6.481-2.913
	c-1.987-1.55-3.775-3.338-5.325-5.325l0,0l-0.289-0.333c-0.244-0.326-0.463-0.489-0.656-0.489s-0.304,0.274-0.333,0.822
	c0.137,1.317,0.482,2.604,1.023,3.813c0.544,1.512,1.232,2.967,2.057,4.347c0.052,0.091,0.093,0.188,0.122,0.289
	c0,0.133-0.163,0.2-0.489,0.2c-1.89,0-23.902-0.278-24.669-0.322l-1.823-0.123h-0.723c-0.83,0-1.245,0.326-1.245,0.979
	c0,0.652,0.415,0.978,1.245,0.978h0.723l1.868-0.133c0.767,0,23.001-0.323,24.669-0.323c0.326,0,0.489,0.067,0.489,0.2
	c-0.029,0.102-0.07,0.198-0.122,0.289c-0.835,1.378-1.536,2.834-2.09,4.348c-0.541,1.209-0.886,2.496-1.023,3.812
	c0,0.549,0.111,0.823,0.333,0.823s0.441-0.163,0.656-0.489l0.289-0.334l0,0c1.549-1.99,3.338-3.782,5.325-5.336
	c1.906-1.448,4.12-2.438,6.47-2.891l1.39-0.333c0.519-0.133,0.778-0.337,0.778-0.611C519.95,383.807,519.927,383.738,519.89,383.677
	z"/>
</svg>
