<?xml version="1.0" encoding="utf-8"?>
<!-- Generator: Adobe Illustrator 15.1.0, SVG Export Plug-In . SVG Version: 6.00 Build 0)  -->
<!DOCTYPE svg PUBLIC "-//W3C//DTD SVG 1.1//EN" "http://www.w3.org/Graphics/SVG/1.1/DTD/svg11.dtd">
<svg version="1.1" id="Layer_1" xmlns="http://www.w3.org/2000/svg" xmlns:xlink="http://www.w3.org/1999/xlink" x="0px" y="0px"
	 width="300px" height="275.651px" viewBox="1052.74 496.567 300 275.651" enable-background="new 1052.74 496.567 300 275.651"
	 xml:space="preserve">
<title>Pin Drop logo</title>
<path d="M1086.923,622.679c-1.481-4.33-4.05-6.168-7.63-6.168c-2.058,0.032-4.042,0.767-5.625,2.081
	c-3.58,2.7-5.062,8.024-5.062,14.191v1.462c0,6.168,1.481,11.567,5.062,14.268c1.59,1.293,3.576,2.001,5.625,2.005
	c3.58,0,6.148-1.612,7.63-5.942c1.157-3.556,1.684-7.286,1.556-11.023C1088.61,629.865,1088.083,626.183,1086.923,622.679
	 M1092.547,644.426c-3.112,4.855-7.855,8.174-13.123,8.174c-2.568,0.026-5.047-0.941-6.918-2.699
	c-1.819-1.59-3.125-3.685-3.749-6.018h-0.131V769.04c0,0.618,0.543,0.844,2.568,0.918l6.224,0.226
	c0.546-0.052,1.031,0.349,1.083,0.896c0.004,0.039,0.005,0.078,0.005,0.117c0.036,0.526-0.362,0.982-0.889,1.019
	c-0.066,0.006-0.133,0.003-0.199-0.006c-2.644,0-8.249-0.226-11.248-0.226s-8.643,0.226-11.248,0.226
	c-0.523,0.073-1.007-0.291-1.08-0.813c-0.01-0.066-0.012-0.133-0.008-0.199c-0.013-0.549,0.422-1.004,0.971-1.018
	c0.039-0.001,0.078,0.001,0.117,0.005l6.225-0.226c0.474,0.043,0.893-0.307,0.936-0.781c0.004-0.045,0.004-0.092,0.001-0.137
	V619.905c0-1.312-0.618-2.081-2.175-2.081h-6.148c-0.58-0.017-1.036-0.501-1.019-1.08c0.001-0.027,0.003-0.055,0.005-0.082
	c0-0.544,0.319-0.919,1.013-0.919c3.75,0,9.486-0.149,13.704-0.149c0.769,0,1.163,0.394,1.163,1.087v6.486h0.225
	c0.625-2.333,1.931-4.429,3.75-6.018c1.879-1.737,4.358-2.679,6.917-2.624c5.287,0,10.03,3.468,13.123,8.323
	c2.004,3.221,3.081,6.931,3.113,10.724c-0.028,3.841-1.105,7.6-3.113,10.873"/>
<path d="M1113.994,606.857c-2.672,0.042-4.871-2.09-4.912-4.761c-0.001-0.057-0.001-0.113,0-0.17
	c0.168-2.707,2.498-4.767,5.205-4.599c2.475,0.152,4.446,2.125,4.6,4.599c0.052,2.671-2.071,4.878-4.742,4.93
	C1114.095,606.857,1114.044,606.858,1113.994,606.857 M1123.799,651.532c-3.355,0-5.624-0.226-9.036-0.226
	c-3.413,0-5.624,0.226-9.037,0.226c-0.554,0.075-1.064-0.312-1.14-0.865c-0.076-0.555,0.312-1.065,0.865-1.141
	c0.091-0.013,0.184-0.013,0.274,0l4.912-0.226c0.619,0,0.862-0.3,0.862-0.918v-28.478c0-1.312-0.469-2.081-2.024-2.081h-5.193
	c-0.546,0.052-1.03-0.349-1.083-0.895c-0.003-0.033-0.004-0.065-0.004-0.099c0.03-0.573,0.514-1.015,1.087-0.993
	c2.644,0,5.905,0,9.036-0.301c1.557-0.149,2.963-0.469,3.75-0.469c0.576-0.065,1.096,0.348,1.162,0.924
	c0.009,0.08,0.009,0.16,0,0.239v32.133c0,0.543,0.225,0.918,0.862,0.918l4.818,0.226c0.554-0.076,1.064,0.312,1.141,0.865
	c0.075,0.554-0.312,1.064-0.866,1.141c-0.091,0.013-0.184,0.013-0.274,0"/>
<path d="M1172.916,651.532c-3.355,0-6.074-0.226-9.504-0.226c-3.431,0-5.831,0.226-8.793,0.226c-0.485,0.035-0.907-0.33-0.942-0.815
	c-0.005-0.06-0.003-0.119,0.005-0.179c0-0.469,0.226-0.919,1.013-1.012l4.518-0.226c0.475,0.043,0.894-0.308,0.937-0.781
	c0.004-0.046,0.005-0.092,0.001-0.137V624.31c0-5.398-1.874-7.873-5.455-7.873c-5.287,0-9.374,5.023-9.374,12.729v19.197
	c0,0.543,0.225,0.918,0.862,0.918l4.519,0.226c0.787,0,1.087,0.543,1.087,1.012c0.003,0.549-0.44,0.996-0.989,0.998
	c-0.033,0.001-0.065-0.001-0.098-0.004c-2.025,0-4.987-0.226-8.643-0.226c-4.668,0-6.543,0.226-9.805,0.226
	c-0.508,0.012-0.929-0.39-0.94-0.896c-0.001-0.032,0-0.065,0.003-0.098c-0.014-0.549,0.421-1.004,0.97-1.017
	c0.039-0.001,0.078,0.001,0.117,0.005l5.456-0.226c0.618,0,0.862-0.3,0.862-0.918v-28.459c0-1.312-0.544-2.081-2.1-2.081h-5.493
	c-0.546,0.052-1.031-0.349-1.083-0.895c-0.003-0.033-0.005-0.065-0.005-0.099c0.031-0.573,0.515-1.015,1.088-0.993
	c3.749,0,8.867-0.395,12.991-0.77c0.576-0.065,1.097,0.348,1.163,0.924c0.009,0.08,0.009,0.16,0,0.239v5.624h0.225
	c1.312-4.297,5.238-7.262,9.729-7.35c6.102-0.305,11.295,4.395,11.599,10.496c0.022,0.438,0.018,0.877-0.013,1.314v22.048
	c0,0.618,0.15,0.918,0.862,0.918l5.287,0.226c0.555-0.076,1.064,0.312,1.141,0.865s-0.312,1.064-0.865,1.141
	c-0.092,0.013-0.184,0.013-0.275,0"/>
<path d="M1208.948,632.785c0-6.168-1.405-11.492-4.986-14.192c-1.626-1.327-3.656-2.061-5.756-2.08c-7.93,0-9.186,9.261-9.186,17.06
	c-0.038,9.486,1.649,16.984,9.205,16.984c2.095-0.003,4.126-0.724,5.755-2.043c3.581-2.699,4.987-8.099,4.987-14.267
	L1208.948,632.785z M1223.422,651.532h-8.324c-1.706,0-5.999,0.149-5.999,0.149l-0.226-0.318v-7.499h-0.225
	c-0.574,2.315-1.819,4.409-3.58,6.018c-1.906,1.765-4.416,2.73-7.012,2.7c-5.287,0-10.03-3.318-13.123-8.174
	c-2.008-3.273-3.084-7.033-3.112-10.874c0.031-3.792,1.108-7.503,3.112-10.724c3.112-4.855,7.854-8.323,13.123-8.323
	c2.587-0.058,5.098,0.883,7.012,2.624c1.761,1.609,3.006,3.703,3.58,6.018h0.244V501.272c0-1.687-0.226-2.475-2.175-2.475h-8.962
	c-0.508,0.033-0.953-0.338-1.012-0.843v-0.469c0.01-0.51,0.427-0.919,0.938-0.918c2.175,0,15.091,0,17.51,0
	c0.319,0,0.319,0.225,0.319,0.318v151.104c0,0.544,0.394,1.312,1.631,1.312c1.874,0,6.299,0.15,6.299,0.15
	c0.425,0.062,0.746,0.415,0.769,0.844v0.263c0,0.394-0.319,0.993-0.769,0.993"/>
<path d="M1245,627.854v20.51c-0.033,0.475,0.325,0.887,0.801,0.919c0.045,0.004,0.091,0.004,0.137-0.001l5.455,0.226
	c0.546-0.053,1.031,0.349,1.083,0.895c0.004,0.039,0.005,0.078,0.005,0.117c0.032,0.517-0.36,0.962-0.876,0.995
	c-0.046,0.003-0.091,0.003-0.137-0.001l0,0c-2.644,0-6.693-0.226-9.729-0.226c-3.432,0-6.375,0.226-9.73,0.226l0,0
	c-0.538,0.021-0.99-0.398-1.012-0.937c-0.001-0.02-0.001-0.038,0-0.058c-0.014-0.549,0.421-1.004,0.97-1.017
	c0.039-0.001,0.078,0.001,0.117,0.005l5.53-0.226c0.693,0,0.938-0.3,0.938-0.918v-28.459c0-1.312-0.544-2.081-2.1-2.081h-6.225
	c-0.546,0.052-1.03-0.349-1.082-0.895c-0.004-0.033-0.005-0.065-0.005-0.099c0.021-0.579,0.507-1.032,1.086-1.013h0.001
	c3.75,0,9.374-0.394,13.535-0.769c0.588-0.054,1.108,0.379,1.163,0.966c0.006,0.065,0.006,0.132,0,0.197v5.624h0.225
	c1.025-3.9,4.383-6.741,8.399-7.105c3.774-0.179,6.98,2.736,7.158,6.511c0.01,0.198,0.011,0.396,0.003,0.594
	c0,2.775-1.481,5.324-4.349,5.324c-2.205,0.033-4.02-1.728-4.053-3.933c-0.002-0.076-0.001-0.152,0.003-0.229
	c0-3.618,3.581-3.544,3.581-5.249c0-0.994-0.938-1.463-2.25-1.463c-5.756,0-8.474,6.955-8.474,11.643"/>
<path d="M1296.442,625.154c-0.405-3.386-2.482-6.344-5.53-7.873c-1.381-0.556-2.862-0.817-4.35-0.769
	c-1.518-0.051-3.03,0.211-4.443,0.769c-3.337,1.387-4.742,4.63-5.455,7.873c-0.588,2.767-0.877,5.59-0.863,8.418
	c-0.014,2.798,0.275,5.588,0.863,8.324c0.693,3.243,2.1,6.561,5.455,7.948c1.388,0.525,2.867,0.768,4.35,0.712
	c1.481,0.072,2.963-0.164,4.349-0.693c3.338-1.387,4.819-4.705,5.531-7.948c0.554-2.739,0.812-5.529,0.769-8.324
	c0.044-2.825-0.215-5.646-0.769-8.417 M1300.548,644.764c-2.32,3.061-5.403,5.459-8.942,6.955c-3.313,1.232-6.96,1.232-10.273,0
	c-3.56-1.495-6.667-3.893-9.018-6.955c-5.08-6.59-5.08-15.776,0-22.366c2.352-3.057,5.46-5.447,9.018-6.937
	c3.314-1.232,6.96-1.232,10.273,0c3.537,1.489,6.621,3.882,8.942,6.937C1305.735,628.951,1305.735,638.211,1300.548,644.764"/>
<path d="M1343.91,622.679c-1.48-4.33-4.049-6.168-7.63-6.168c-2.058,0.032-4.042,0.767-5.624,2.081
	c-3.581,2.7-5.062,8.024-5.062,14.191v1.462c0,6.168,1.48,11.567,5.062,14.268c1.589,1.293,3.575,2.001,5.624,2.005
	c3.581,0,6.149-1.612,7.63-5.942c1.157-3.556,1.684-7.286,1.557-11.023C1345.598,629.865,1345.07,626.183,1343.91,622.679
	 M1349.534,644.426c-3.111,4.855-7.854,8.174-13.123,8.174c-2.533,0.009-4.974-0.95-6.824-2.681
	c-1.819-1.589-3.124-3.684-3.749-6.018h-0.225v22.215c0,0.619,0.543,0.844,2.568,0.919l6.224,0.225
	c0.546-0.051,1.031,0.35,1.083,0.896c0.004,0.032,0.005,0.064,0.005,0.098c0.036,0.526-0.362,0.983-0.889,1.02
	c-0.066,0.004-0.133,0.002-0.198-0.007c-2.644,0-8.249-0.226-11.249-0.226c-2.999,0-8.642,0.226-11.248,0.226
	c-0.522,0.073-1.007-0.291-1.08-0.813c-0.01-0.066-0.012-0.133-0.007-0.199c-0.003-0.549,0.44-0.995,0.989-0.998
	c0.032,0,0.065,0.001,0.098,0.004l6.225-0.225c0.474,0.043,0.894-0.308,0.936-0.781c0.004-0.046,0.005-0.092,0.002-0.138v-46.212
	c0-1.312-0.619-2.081-2.175-2.081h-6.056c-0.579-0.017-1.036-0.501-1.019-1.08c0.001-0.027,0.003-0.055,0.006-0.082
	c-0.026-0.486,0.347-0.901,0.832-0.928c0.061-0.003,0.121,0,0.181,0.009c3.749,0,9.505-0.149,13.704-0.149
	c0.787,0,1.162,0.394,1.162,1.087v6.486h0.131c0.625-2.333,1.93-4.429,3.75-6.018c1.879-1.737,4.359-2.679,6.918-2.624
	c5.287,0,10.029,3.468,13.123,8.323c2.004,3.221,3.08,6.931,3.111,10.724c-0.028,3.841-1.104,7.6-3.111,10.873"/>
</svg>
