<?xml version="1.0" encoding="utf-8"?>
<!-- Generator: Adobe Illustrator 15.1.0, SVG Export Plug-In . SVG Version: 6.00 Build 0)  -->
<!DOCTYPE svg PUBLIC "-//W3C//DTD SVG 1.1//EN" "http://www.w3.org/Graphics/SVG/1.1/DTD/svg11.dtd">
<svg version="1.1" id="Layer_1" xmlns="http://www.w3.org/2000/svg" xmlns:xlink="http://www.w3.org/1999/xlink" x="0px" y="0px"
	 width="40.99px" height="20px" viewBox="1179.505 619.857 40.99 20" enable-background="new 1179.505 619.857 40.99 20"
	 xml:space="preserve">
<title>ScotchArrow</title>
<path d="M1220.433,629.655c-0.083-0.19-0.63-0.395-1.64-0.615l-0.489-0.125c-2.355-0.456-4.573-1.452-6.479-2.909
	c-1.988-1.55-3.777-3.34-5.328-5.329h0.039l-0.272-0.33c-0.255-0.327-0.477-0.49-0.666-0.49c-0.19,0-0.3,0.273-0.331,0.82
	c0.139,1.317,0.484,2.605,1.025,3.814c0.555,1.512,1.254,2.967,2.089,4.344c0.054,0.09,0.096,0.185,0.126,0.285
	c0,0.137-0.164,0.205-0.49,0.205c-1.884,0-23.911-0.273-24.663-0.319s-1.383-0.085-1.867-0.131h-0.717
	c-0.843,0.004-1.264,0.332-1.264,0.985s0.414,0.979,1.241,0.979h0.74c0.478-0.042,1.101-0.085,1.867-0.131
	c0.763-0.046,22.995-0.319,24.663-0.319c0.326,0,0.49,0.068,0.49,0.205c-0.03,0.1-0.072,0.195-0.126,0.285
	c-0.835,1.377-1.534,2.832-2.089,4.344c-0.541,1.209-0.887,2.497-1.025,3.814c0,0.547,0.11,0.82,0.331,0.82
	c0.22,0,0.441-0.162,0.666-0.484l0.284-0.33h-0.04c1.552-1.988,3.341-3.778,5.329-5.329c1.906-1.457,4.124-2.452,6.479-2.909
	c0.847-0.189,1.312-0.3,1.396-0.33c0.523-0.137,0.785-0.342,0.785-0.615C1220.491,629.788,1220.47,629.717,1220.433,629.655z"/>
</svg>
